<svg xmlns="http://www.w3.org/2000/svg" width="24" height="24" viewBox="0 0 24 24">
  <path fill="#5865F2" d="M20.317 4.369a19.79 19.79 0 0 0-4.885-1.5a.074.074 0 0 0-.078.037c-.21.375-.444.864-.608 1.248c-1.844-.276-3.68-.276-5.486 0c-.164-.39-.406-.873-.618-1.248a.077.077 0 0 0-.079-.037a19.737 19.737 0 0 0-4.885 1.5a.07.07 0 0 0-.032.028C2.083 9.046 1.528 13.604 1.858 18.123a.082.082 0 0 0 .031.056a19.9 19.9 0 0 0 5.99 3.02a.079.079 0 0 0 .084-.028c.461-.63.873-1.295 1.226-1.994a.076.076 0 0 0-.041-.105a13.123 13.123 0 0 1-1.872-.9a.077.077 0 0 1-.008-.127c.126-.094.252-.192.372-.291a.074.074 0 0 1 .077-.01c3.927 1.793 8.18 1.793 12.062 0a.075.075 0 0 1 .078.009c.12.099.246.198.373.292a.077.077 0 0 1-.006.127a12.234 12.234 0 0 1-1.873.9a.076.076 0 0 0-.041.106c.36.698.772 1.362 1.226 1.993a.078.078 0 0 0 .084.03a19.876 19.876 0 0 0 6.002-3.02a.077.077 0 0 0 .03-.055c.5-5.177-.838-9.706-3.548-13.726a.06.06 0 0 0-.03-.028Z"/>
  <path fill="#fff" d="M8.02 15.346c-1.183 0-2.157-1.085-2.157-2.419c0-1.333.955-2.419 2.157-2.419c1.21 0 2.175 1.094 2.157 2.42c0 1.334-.955 2.418-2.157 2.418Zm7.975 0c-1.183 0-2.157-1.085-2.157-2.419c0-1.333.955-2.419 2.157-2.419c1.21 0 2.175 1.094 2.157 2.42c0 1.334-.947 2.418-2.157 2.418Z"/>
</svg>
